<?xml version="1.0" standalone="no"?>
<!DOCTYPE svg PUBLIC "-//W3C//DTD SVG 1.1//EN" "http://www.w3.org/Graphics/SVG/1.1/DTD/svg11.dtd">
<svg width="100%" height="100%" viewBox="0 0 24 24" version="1.1" xmlns="http://www.w3.org/2000/svg" xmlns:xlink="http://www.w3.org/1999/xlink" xml:space="preserve" style="fill-rule:evenodd;clip-rule:evenodd;stroke-linejoin:round;stroke-miterlimit:1.41421;">
    <path d="M9.93,13.5L14.07,13.5L12,7.98L9.93,13.5ZM20,2L4,2C2.9,2 2,2.9 2,4L2,20C2,21.1 2.9,22 4,22L20,22C21.1,22 22,21.1 22,20L22,4C22,2.9 21.1,2 20,2ZM15.95,18.5L14.81,15.5L9.17,15.5L8.05,18.5L5.96,18.5L11.07,5.5L12.93,5.5L18.04,18.5L15.95,18.5Z" style="fill:black;fill-rule:nonzero;"/>
</svg>
